<svg xmlns="http://www.w3.org/2000/svg" width="800" height="600" viewBox="0 0 800 600">
  <!-- Definición de patrones y texturas -->
  <defs>
    <!-- Textura de spray/graffiti -->
    <pattern id="spray-pattern" patternUnits="userSpaceOnUse" width="100" height="100" patternTransform="scale(0.5)">
      <rect width="100" height="100" fill="#000" opacity="0.05"/>
      <circle cx="10" cy="10" r="1" fill="#fff" opacity="0.4"/>
      <circle cx="30" cy="15" r="1.5" fill="#fff" opacity="0.3"/>
      <circle cx="55" cy="25" r="1" fill="#fff" opacity="0.5"/>
      <circle cx="70" cy="60" r="2" fill="#fff" opacity="0.2"/>
      <circle cx="20" cy="80" r="1.5" fill="#fff" opacity="0.3"/>
      <circle cx="40" cy="45" r="1" fill="#fff" opacity="0.4"/>
      <circle cx="80" cy="30" r="1" fill="#fff" opacity="0.5"/>
      <circle cx="90" cy="90" r="2" fill="#fff" opacity="0.2"/>
    </pattern>
    
    <!-- Filtro para efecto de spray -->
    <filter id="spray-effect" x="-50%" y="-50%" width="200%" height="200%">
      <feTurbulence type="fractalNoise" baseFrequency="0.08" numOctaves="3" seed="5" />
      <feDisplacementMap in="SourceGraphic" scale="5" />
    </filter>
    
    <!-- Filtro para efecto de goteo -->
    <filter id="drip-effect" x="-50%" y="-50%" width="200%" height="200%">
      <feTurbulence type="turbulence" baseFrequency="0.05" numOctaves="2" />
      <feDisplacementMap in="SourceGraphic" scale="10" xChannelSelector="R" yChannelSelector="G" />
    </filter>
  </defs>
  
  <!-- Elementos de graffiti -->
  <g filter="url(#spray-effect)">
    <path d="M100,100 C150,50 200,150 250,100 S300,50 350,100" 
          stroke="#e85e27" stroke-width="15" fill="none" opacity="0.8" />
  </g>
  
  <g filter="url(#drip-effect)" transform="translate(400, 150)">
    <path d="M0,0 Q50,-50 100,0 T200,0" 
          stroke="#3498db" stroke-width="12" fill="none" opacity="0.7" />
  </g>
  
  <!-- Textos estilo graffiti -->
  <g transform="translate(150, 300)" filter="url(#spray-effect)">
    <text font-family="Arial" font-weight="bold" font-size="80" fill="#e85e27">
      URBAN
    </text>
    <text font-family="Arial" font-weight="bold" font-size="80" fill="#e85e27" x="5" y="5" opacity="0.3">
      URBAN
    </text>
  </g>
  
  <g transform="translate(200, 400)" filter="url(#spray-effect)">
    <text font-family="Arial" font-weight="bold" font-size="60" fill="#3498db">
      STYLE
    </text>
    <text font-family="Arial" font-weight="bold" font-size="60" fill="#3498db" x="3" y="3" opacity="0.3">
      STYLE
    </text>
  </g>
  
  <!-- Manchas y salpicaduras -->
  <circle cx="100" cy="200" r="30" fill="#e85e27" opacity="0.6" filter="url(#spray-effect)" />
  <circle cx="700" cy="300" r="40" fill="#3498db" opacity="0.5" filter="url(#spray-effect)" />
  <circle cx="400" cy="500" r="50" fill="#f1c40f" opacity="0.4" filter="url(#spray-effect)" />
  
  <!-- Líneas de estilo urbano -->
  <line x1="0" y1="150" x2="800" y2="170" stroke="#fff" stroke-width="2" opacity="0.2" />
  <line x1="0" y1="450" x2="800" y2="430" stroke="#fff" stroke-width="3" opacity="0.1" />
  
  <!-- Patrón de fondo -->
  <rect width="800" height="600" fill="url(#spray-pattern)" opacity="0.3" />
</svg>