<svg id="Capa_1" data-name="Capa 1" xmlns="http://www.w3.org/2000/svg" viewBox="0 0 1087.66 1036.56"><defs><style>.cls-1{fill:#fff;}.cls-1,.cls-2,.cls-3,.cls-4,.cls-5{fill-rule:evenodd;}.cls-2{fill:#5b5a5a;}.cls-3{fill:#020102;}.cls-4{fill:#eb5e28;}.cls-5{fill:#010101;}</style></defs><path class="cls-1" d="M669.86,453.81c-.08.53-.17,1.05-.27,1.57a18.2,18.2,0,0,0-5-.61L546,456.51a29.09,29.09,0,0,0-17.68,6.33,213.12,213.12,0,0,1-4.68-40.14c0-1.72-.05-3.46-.05-5.2a216.76,216.76,0,0,1,3.6-39.73H669.26a217.64,217.64,0,0,1,3.6,39.73c0,1.74,0,3.48-.06,5.2A217,217,0,0,1,669.86,453.81Zm-48-36.43a12.53,12.53,0,0,1-2.3.21c-7.59,0-13.76-6.69-13.76-14.93a15.12,15.12,0,0,1,7.66-13.39c-2.94-3.5-6.44-5.54-10.21-5.54-10.26,0-18.6,15.17-18.6,33.86s8.34,33.86,18.6,33.86,18.61-15.17,18.61-33.86Z"/><path class="cls-1" d="M764.41,360.53c.87,2.91,1.69,6,2.45,9.13a256,256,0,0,1,6.14,41c.55,7.55.84,15.36.84,23.38,0,10.65-.51,21-1.47,30.74a17.82,17.82,0,0,0-3-.2l-51.21.89a29.12,29.12,0,0,0-8.29,1.35l-13.47-18.35q-.32-7.1-.31-14.43c0-8,.29-15.83.83-23.38,1.41-19.3,4.53-36.79,8.87-51.07h58.36C764.22,359.91,764.32,360.22,764.41,360.53Zm-17.35,56.41c-5.64-1.86-9.75-7.56-9.75-14.28a15.58,15.58,0,0,1,4-10.51c-1.85-2.8-4-4.42-6.35-4.42-6.68,0-12.1,13.38-12.1,29.86s5.42,29.86,12.1,29.86,12.11-13.38,12.11-29.86Z"/><path class="cls-2" d="M668.44,373.66q-.5,2.08-1.08,4.11H528.64c-.31-1.06-.59-2.14-.86-3.22a88.17,88.17,0,0,1-2.62-21.44c0-44.45,32.64-80.54,72.84-80.54s72.84,36.09,72.84,80.54A88.26,88.26,0,0,1,668.44,373.66Z"/><path class="cls-2" d="M757.89,532.28l-48-65.44a28.77,28.77,0,0,1,8.29-1.35l51.21-.89a17.82,17.82,0,0,1,3,.2,18.51,18.51,0,0,1,14.12,26l-13.93,30.33A19.45,19.45,0,0,1,757.89,532.28Z"/><path class="cls-3" d="M680,712.16c-40.3,48.1-95,79.08-155.71,82.94,0,.62.07,1.24.07,1.86,0,17.65-18.47,32-41.23,32-20.15,0-37-11.24-40.53-26.08a40.7,40.7,0,0,1-45.71-11.3c-14.16-4.11-24.45-16.41-24.45-30.93,0-.75,0-1.49.08-2.22a50.62,50.62,0,0,1-14.9,2.22c-26.19,0-47.46-19.78-47.46-44.14a41.49,41.49,0,0,1,5.24-20.18c-25.25-13.59-42.26-39-42.26-68.06,0-1.37,0-2.73.11-4.08C253.78,617,239.63,595,239.63,569.11s14.1-47.76,33.49-55c0-.78,0-1.56,0-2.33C273.11,355.14,379.87,228,511.36,228A202.6,202.6,0,0,1,552,232.11c-62.29,32.1-108.71,100.27-121.06,182.61a223.4,223.4,0,0,0-3.26,38.11c0,.9,0,1.81,0,2.71a295.18,295.18,0,0,1,3.24-40.82c14.75-85.28,78.09-153,159-170.9a226.72,226.72,0,0,1,59.32,36.57q4.74,4,9.32,8.31a271.22,271.22,0,0,1,47.65,59.83c-.1,1.51-.15,3-.15,4.58s.06,3.32.18,4.95c-.17.51-.33,1-.49,1.55-4.34,14.28-7.46,31.77-8.87,51.07-.55,7.55-.84,15.36-.84,23.38q0,7.33.32,14.43l-10.59-14.43L670,455.51l-.45-.13a215.05,215.05,0,0,0,3.21-32.68c0-1.72.06-3.46.06-5.2a216.75,216.75,0,0,0-3.61-39.73q-.37-2.07-.81-4.11a88.26,88.26,0,0,0,2.4-20.55c0-44.45-32.64-80.54-72.84-80.54s-72.84,36.09-72.84,80.54a88.17,88.17,0,0,0,2.62,21.44c-.22,1.07-.43,2.14-.63,3.22a216.76,216.76,0,0,0-3.6,39.73c0,1.74,0,3.48.06,5.2a212.32,212.32,0,0,0,4.67,40.14,29.05,29.05,0,0,0-7.3,36.81l13.86,25a42.93,42.93,0,0,0,37.53,22.09h30.72l-31.37,42.73H740.56c-.48,2-1,4-1.49,6H523.55Z"/><path class="cls-1" d="M430.93,414.72c14.75-85.28,78.09-153,159-170.9a226.72,226.72,0,0,1,59.32,36.57q4.74,4,9.32,8.31a271.22,271.22,0,0,1,47.65,59.83c-.1,1.51-.15,3-.15,4.58s.06,3.32.18,4.95c-.17.51-.33,1-.49,1.55-4.34,14.28-7.46,31.77-8.87,51.07-.55,7.55-.84,15.36-.84,23.38q0,7.33.32,14.43l-10.59-14.43L670,455.51l-.45-.13a215.05,215.05,0,0,0,3.21-32.68c0-1.72.06-3.46.06-5.2a216.75,216.75,0,0,0-3.61-39.73q-.37-2.07-.81-4.11a88.26,88.26,0,0,0,2.4-20.55c0-44.45-32.64-80.54-72.84-80.54s-72.84,36.09-72.84,80.54a88.17,88.17,0,0,0,2.62,21.44c-.22,1.07-.43,2.14-.63,3.22a216.76,216.76,0,0,0-3.6,39.73c0,1.74,0,3.48.06,5.2a212.32,212.32,0,0,0,4.67,40.14,29.05,29.05,0,0,0-7.3,36.81l13.86,25a42.93,42.93,0,0,0,37.53,22.09h30.72l-31.37,42.73H740.56c-.48,2-1,4-1.49,6H523.55L680,712.16c-40.3,48.1-95,79.08-155.71,82.94,0,.62.07,1.24.07,1.86,0,17.65-18.47,32-41.23,32-20.15,0-37-11.24-40.53-26.08a40.7,40.7,0,0,1-45.71-11.3c-14.16-4.11-24.45-16.41-24.45-30.93,0-.75,0-1.49.08-2.22a50.62,50.62,0,0,1-14.9,2.22c-26.19,0-47.46-19.78-47.46-44.14a41.49,41.49,0,0,1,5.24-20.18c-25.25-13.59-42.26-39-42.26-68.06,0-1.37,0-2.73.11-4.08C253.78,617,239.63,595,239.63,569.11s14.1-47.76,33.49-55c0-.78,0-1.56,0-2.33C273.11,355.14,379.87,228,511.36,228A202.6,202.6,0,0,1,552,232.11c-62.29,32.1-108.71,100.27-121.06,182.61a223.4,223.4,0,0,0-3.26,38.11c0,.9,0,1.81,0,2.71A295.18,295.18,0,0,1,430.93,414.72Zm132.3,171.72a9.51,9.51,0,0,1,1.23-2.31l20.85-28.41H572.37A51.9,51.9,0,0,1,527,529l-13.86-25a38.07,38.07,0,0,1,.34-37.53,38.67,38.67,0,0,1,5-6.78,225.07,225.07,0,0,1-3.85-36.8c0-1.8-.06-3.6-.06-5.41a225.55,225.55,0,0,1,3.76-41.38c.08-.47.17-.93.26-1.4a97.56,97.56,0,0,1-2.4-21.61c0-49.65,36.93-89.54,81.84-89.54a75.22,75.22,0,0,1,14,1.31,212,212,0,0,0-22.88-11.64c-76.08,18-135.32,82.33-149.29,162.92a286.9,286.9,0,0,0-3.13,39.47,9,9,0,0,1-18,0c0-.93,0-1.87,0-2.81A232.78,232.78,0,0,1,422,413.29c11.31-75.23,50.23-138.92,103.51-175.77q-7-.51-14.19-.52c-127,0-229.25,123.51-229.25,274.76,0,.75,0,1.51,0,2.27a9,9,0,0,1-5.85,8.49c-16.3,6.11-27.64,24.84-27.64,46.59s11.38,40.56,27.72,46.63a9,9,0,0,1,5.86,8.93c-.07,1.19-.1,2.39-.1,3.59,0,25.72,15.18,48.11,37.53,60.14a9,9,0,0,1,3.61,12.29,32.44,32.44,0,0,0-4.12,15.81c0,19.58,17.41,35.14,38.46,35.14a41.89,41.89,0,0,0,12.26-1.82,9,9,0,0,1,11.62,9.25c0,.52-.05,1-.05,1.57,0,10.54,7.67,19.3,17.95,22.28a9.1,9.1,0,0,1,4.3,2.76,31.72,31.72,0,0,0,35.6,8.81,9,9,0,0,1,12.05,6.27C454.08,812.19,467.58,820,483.1,820c17.26,0,32.23-9.6,32.23-23,0-.4,0-.8-.05-1.2a9,9,0,0,1,8.41-9.64c55.18-3.52,105.13-30.49,143.12-72.55L518.16,602.66a9,9,0,0,1,5.39-16.22ZM672.85,316.87a96.27,96.27,0,0,1,7,36.24,98,98,0,0,1-2.19,20.66c.16.78.31,1.56.45,2.35a225.55,225.55,0,0,1,3.76,41.38c0,1.81,0,3.61-.06,5.41,0,1-.06,2.08-.09,3.12a9,9,0,0,1,4.08-1,9.2,9.2,0,0,1,1.39.11c.13-5.14.39-10.19.75-15.13,1.46-20,4.72-38.21,9.23-53v0q-.09-1.89-.09-3.84,0-1.14,0-2.28A269.78,269.78,0,0,0,672.85,316.87Z"/><path class="cls-3" d="M552,232.11a174.92,174.92,0,0,1,80.53-19.79q8.46,0,16.74.81v26.76q-8.28-.7-16.74-.7a196.87,196.87,0,0,0-42.58,4.63c-80.92,17.87-144.26,85.62-159,170.9C443.28,332.38,489.7,264.21,552,232.11Z"/><path class="cls-3" d="M707.26,253.87V229.25C772.45,260,821.38,329.84,834.11,414.72,821.38,341.11,772.45,280.56,707.26,253.87Z"/><path class="cls-2" d="M527.78,374.55a88.17,88.17,0,0,1-2.62-21.44c0-44.45,32.64-80.54,72.84-80.54s72.84,36.09,72.84,80.54a88.26,88.26,0,0,1-2.4,20.55q-.5,2.08-1.08,4.11H528.64C528.33,376.71,528.05,375.63,527.78,374.55Z"/><path class="cls-2" d="M528.28,462.84A29.09,29.09,0,0,1,546,456.51l118.62-1.74a18.2,18.2,0,0,1,5,.61c4.22,1.42,8.75,4.45,11.08,8.28a18.5,18.5,0,0,1,.49,18.38l-29.24,54.42a19.46,19.46,0,0,1-17.15,10.26h-62.4a42.93,42.93,0,0,1-37.53-22.09l-13.86-25a29.05,29.05,0,0,1,7.3-36.81Z"/><path class="cls-4" d="M523.55,595.44H848v24.33h-32.6L685.79,716.5Z"/><path class="cls-1" d="M523.55,595.44H848v24.33h-32.6L685.79,716.5Zm27.12,9L685.79,705.27l124.26-92.72a9,9,0,0,1,5.38-1.79H839v-6.31Z"/><path class="cls-4" d="M685.79,434.06,795,582.86c-1.65,2.23-3.33,4.43-5.06,6.59H571.72l31.37-42.73h31.68a19.46,19.46,0,0,0,17.15-10.26L681.16,482a18.5,18.5,0,0,0-.49-18.38c-2.33-3.83-6.86-6.86-11.08-8.28.1-.52.19-1,.28-1.57Z"/><path class="cls-1" d="M685.79,434.06,795,582.86c-1.65,2.23-3.33,4.43-5.06,6.59H571.72l31.37-42.73h31.68a19.46,19.46,0,0,0,17.15-10.26L681.16,482a18.5,18.5,0,0,0-.49-18.38c-2.33-3.83-6.86-6.86-11.08-8.28.1-.52.19-1,.28-1.57Zm97.09,146.79L685.47,448.16,682,452.51a26,26,0,0,1,6.07,6.68,27.14,27.14,0,0,1,.72,26.92L659.5,540.53a28.09,28.09,0,0,1-24.73,14.79H607.44L588.7,580.85Z"/><path class="cls-5" d="M268.81,511.22C269.05,352.3,377.87,223.7,511.36,223.7a206.56,206.56,0,0,1,41.49,4.2,4.3,4.3,0,0,1,1.11,8c-32.05,16.51-59.79,42.77-80.68,75.66,29.4-36,69.8-61.84,115.73-72a4.29,4.29,0,0,1,2.58.23A231.18,231.18,0,0,1,652,277.1q4.83,4.09,9.48,8.46A273.15,273.15,0,0,1,705,338.33q1.75,2.75,3.43,5.53c.5.82,1,1.65,1.49,2.48a4.3,4.3,0,0,1,.59,2.47c-.09,1.42-.14,2.85-.14,4.3s.06,3.12.16,4.64a4.31,4.31,0,0,1-.18,1.6c-.16.5-.32,1-.47,1.51a4.3,4.3,0,0,1-8.23-2.5c.08-.28.17-.55.25-.82-.08-1.46-.13-2.94-.13-4.43,0-1.18,0-2.35.08-3.51-.25-.43-.51-.86-.77-1.29q-1.65-2.7-3.33-5.36a264.75,264.75,0,0,0-42.12-51.12q-4.5-4.21-9.16-8.16a222.81,222.81,0,0,0-56.94-35.36c-78.6,17.95-140,84.06-154.37,167.1A292.25,292.25,0,0,0,432,455.58a4.3,4.3,0,0,1-8.6,0c0-.92,0-1.84,0-2.76A228.15,228.15,0,0,1,426.68,414c11.86-79,54.63-145.09,112.59-179.77a198.25,198.25,0,0,0-27.91-2C382,232.3,277.41,357.71,277.41,511.76v2.3a4.3,4.3,0,0,1-2.79,4.06c-17.91,6.71-30.69,27.1-30.69,51s12.82,44.37,30.79,51a4.28,4.28,0,0,1,2.79,4.26c-.07,1.28-.1,2.56-.1,3.85,0,27.47,16.13,51.43,40,64.28a4.29,4.29,0,0,1,1.72,5.87,37.21,37.21,0,0,0-4.7,18.09c0,22.08,19.42,39.84,43.16,39.84a46.31,46.31,0,0,0,13.64-2,4.3,4.3,0,0,1,5.55,4.42c0,.63-.07,1.27-.07,1.91,0,12.62,9,23.22,21.35,26.8a4.29,4.29,0,0,1,2.05,1.32A36.42,36.42,0,0,0,441,798.87a4.3,4.3,0,0,1,5.75,3c3.19,13.21,18.41,22.79,36.35,22.79,20.13,0,36.93-12.07,36.93-27.69,0-.52,0-1-.06-1.54a4.32,4.32,0,0,1,1-3.14,4.26,4.26,0,0,1,3-1.47c58.07-3.7,110.51-32.75,149.74-77.95L521,598.89a4.3,4.3,0,0,1,2.58-7.74h44.22a4.3,4.3,0,0,1,.48-4.24L594.6,551H572.37a47.23,47.23,0,0,1-41.29-24.31l-13.86-25a33.35,33.35,0,0,1,6.33-40.49,218.94,218.94,0,0,1-4.24-38.45c0-1.76-.06-3.52-.06-5.3A221.7,221.7,0,0,1,522.92,377l.45-2.34a93.24,93.24,0,0,1-2.51-21.53c0-46.93,34.69-84.84,77.14-84.84s77.14,37.91,77.14,84.84a93.52,93.52,0,0,1-2.29,20.61c.22,1.08.43,2.17.63,3.26a4.3,4.3,0,0,1-8.45,1.58c-.25-1.35-.52-2.69-.8-4a4.37,4.37,0,0,1,0-1.87,84.27,84.27,0,0,0,2.28-19.56c0-42-30.59-76.24-68.54-76.24s-68.54,34.28-68.54,76.24a84.18,84.18,0,0,0,2.49,20.4,4.35,4.35,0,0,1,0,1.9c-.21,1-.42,2.09-.62,3.15a212.78,212.78,0,0,0-3.53,38.94c0,1.71,0,3.41.06,5.1a209,209,0,0,0,4.58,39.33,4.3,4.3,0,0,1-1.52,4.28,24.75,24.75,0,0,0-6.22,31.35l13.86,25a38.62,38.62,0,0,0,33.77,19.88h30.72a4.31,4.31,0,0,1,3.47,6.84l-26.35,35.89H740.56a4.31,4.31,0,0,1,4.19,5.3c-.49,2-1,4.06-1.52,6.07a4.29,4.29,0,0,1-4.16,3.22H536.5l146,109a4.31,4.31,0,0,1,.73,6.21c-40.19,48-94.45,79.16-154.72,84.18-1.39,18.75-21,34.15-45.45,34.15-20.31,0-37.33-10.64-43.26-24.93a45,45,0,0,1-45.4-13c-14.32-4.64-24.8-16.84-26.17-31.41a55.18,55.18,0,0,1-10.68,1c-28.65,0-51.76-21.79-51.76-48.44a45.6,45.6,0,0,1,3.89-18.45c-24.64-14.76-40.91-40.53-40.91-69.79,0-.42,0-.83,0-1.25-19.43-8.78-33.49-31.33-33.49-57.9S249.38,520,268.81,511.22ZM668.5,422.6a4.3,4.3,0,1,1,8.6.2,220.81,220.81,0,0,1-3.27,33.33,4.3,4.3,0,1,1-8.47-1.5A213.17,213.17,0,0,0,668.5,422.6Z"/><path class="cls-2" d="M552,232.11a174.92,174.92,0,0,1,80.53-19.79q8.46,0,16.74.81v26.76q-8.28-.7-16.74-.7a196.87,196.87,0,0,0-42.58,4.63c-80.92,17.87-144.26,85.62-159,170.9C443.28,332.38,489.7,264.21,552,232.11Z"/><path class="cls-1" d="M547.86,224.11a183.93,183.93,0,0,1,84.66-20.8q8.9,0,17.61.86a9,9,0,0,1,8.13,9v26.76a9,9,0,0,1-9.76,9q-7.9-.66-16-.67a188,188,0,0,0-40.64,4.42c-77.44,17.1-138,82-152.08,163.64A9,9,0,0,1,422,413.38C434.84,328,483.25,257.41,547.86,224.11Zm4.13,8c-62.29,32.1-108.71,100.27-121.06,182.61,14.75-85.28,78.09-153,159-170.9a196.87,196.87,0,0,1,42.58-4.63q8.46,0,16.74.7V213.13q-8.28-.81-16.74-.81A174.92,174.92,0,0,0,552,232.11Z"/><path class="cls-2" d="M707.26,253.87V229.25C772.45,260,821.38,329.84,834.11,414.72,821.38,341.11,772.45,280.56,707.26,253.87Z"/><path class="cls-1" d="M698.26,253.87V229.25a9,9,0,0,1,12.84-8.14C778.75,253,829.81,325.31,843,413.38a9,9,0,0,1-17.78,2.87c-12.19-70.47-59-128.49-121.39-154A9,9,0,0,1,698.26,253.87Zm9,0c65.19,26.69,114.12,87.24,126.85,160.85C821.38,329.84,772.45,260,707.26,229.25Z"/><path class="cls-2" d="M704.77,346.08c3.74-21.1,18-39.82,32.71-39.82,16.82,0,26.39,28.92,26.93,54.27-.09-.31-.19-.61-.28-.92H705.77c.16-.52.32-1,.49-1.55q-.18-2.44-.18-4.95c0-1.54,0-3.07.15-4.58C705.75,347.71,705.26,346.9,704.77,346.08Z"/><path class="cls-5" d="M703,253.87V229.25a4.31,4.31,0,0,1,6.14-3.89,199.78,199.78,0,0,1,40.76,25.82c45.57,37.1,78.36,95.29,88.5,162.9a4.3,4.3,0,0,1-8.48,1.37C817.41,343.34,769.49,284,705.63,257.85A4.29,4.29,0,0,1,703,253.87Zm8.6-2.86a210.56,210.56,0,0,1,80.18,60.55,224.21,224.21,0,0,0-47.31-53.71,192.84,192.84,0,0,0-32.87-21.67Z"/><path class="cls-5" d="M523.54,591.14H848a4.3,4.3,0,0,1,4.3,4.3v24.33a4.3,4.3,0,0,1-4.3,4.3H816.86L688.36,720a4.32,4.32,0,0,1-5.14,0L521,598.89a4.3,4.3,0,0,1,2.56-7.75Zm13,8.6L685.79,711.13l127.07-94.81a4.35,4.35,0,0,1,2.57-.85h28.3V599.74Z"/><path class="cls-5" d="M677.1,422.8a220.81,220.81,0,0,1-3.27,33.33,4.3,4.3,0,0,1-5.34,3.41,14.11,14.11,0,0,0-3.85-.47L546,460.81a24.74,24.74,0,0,0-15.06,5.4,4.33,4.33,0,0,1-4.13.68,4.27,4.27,0,0,1-2.75-3.14,216.49,216.49,0,0,1-4.77-40.95c0-1.76-.06-3.52-.06-5.3A221.7,221.7,0,0,1,522.92,377a4.3,4.3,0,0,1,4.23-3.51H669.26a4.29,4.29,0,0,1,4.22,3.51,220.81,220.81,0,0,1,3.68,40.52C677.16,419.28,677.14,421,677.1,422.8Zm-8.6-.2q.06-2.53.06-5.1a214.17,214.17,0,0,0-2.91-35.43H530.75a214.17,214.17,0,0,0-2.91,35.43q0,2.56.06,5.1a211.53,211.53,0,0,0,3.36,33.24,33.13,33.13,0,0,1,14.63-3.62l118.63-1.75q.76,0,1.53,0A213.93,213.93,0,0,0,668.5,422.6Z"/><path class="cls-5" d="M523.6,375.59a93.08,93.08,0,0,1-2.74-22.48c0-46.93,34.69-84.84,77.14-84.84s77.14,37.91,77.14,84.84a93.42,93.42,0,0,1-2.51,21.55c-.35,1.45-.73,2.89-1.14,4.31a4.31,4.31,0,0,1-4.13,3.1H528.64a4.28,4.28,0,0,1-4.12-3.1C524.19,377.85,523.89,376.73,523.6,375.59Zm8.34-2.12H664.06c.07-.27.14-.54.2-.8a84.27,84.27,0,0,0,2.28-19.56c0-42-30.59-76.24-68.54-76.24s-68.54,34.28-68.54,76.24A83.92,83.92,0,0,0,531.94,373.47Z"/><path class="cls-5" d="M709,346.83a4.3,4.3,0,1,1-8.47-1.5c2.42-13.6,9-26.25,17.16-34.21,6-5.81,12.88-9.16,19.79-9.16,8.13,0,15.1,5.23,20.28,13.89,6.76,11.31,10.61,28.61,11,44.59a4.3,4.3,0,0,1-8.6.18c-.31-14.44-3.61-30.13-9.73-40.35-3.4-5.69-7.56-9.71-12.9-9.71-4.87,0-9.59,2.64-13.8,6.73C716.6,324.15,711.08,335.11,709,346.83Z"/><path class="cls-5" d="M550,228.29A179.23,179.23,0,0,1,632.52,208q8.67,0,17.16.83a4.29,4.29,0,0,1,3.88,4.28v26.76a4.3,4.3,0,0,1-4.66,4.29c-5.4-.46-10.87-.69-16.38-.69A192.8,192.8,0,0,0,590.87,248c-79.26,17.5-141.26,83.9-155.7,167.43a4.3,4.3,0,0,1-8.49-1.37C439.25,330.27,486.62,261,550,228.29Zm3.94,7.64c-32.05,16.52-59.79,42.78-80.68,75.67,29.4-36,69.8-61.84,115.73-72a201.56,201.56,0,0,1,43.51-4.73q6.27,0,12.44.38v-18.2q-6.18-.45-12.44-.45A170.74,170.74,0,0,0,554,235.93Z"/><path class="cls-5" d="M665.57,453.87a4.23,4.23,0,0,1,.95-2.76l15.92-19.75a4.3,4.3,0,0,1,6.81.15L798.49,580.32a4.29,4.29,0,0,1,0,5.09q-2.52,3.42-5.16,6.73a4.3,4.3,0,0,1-3.36,1.61H571.72a4.3,4.3,0,0,1-3.47-6.84l31.37-42.74a4.31,4.31,0,0,1,3.47-1.75h31.68a15.17,15.17,0,0,0,13.36-8L677.37,480A14.21,14.21,0,0,0,677,465.9c-1.83-3-5.46-5.33-8.78-6.44a4.3,4.3,0,0,1-2.7-5.45A1.21,1.21,0,0,1,665.57,453.87Zm10.12-.43a24.1,24.1,0,0,1,8.66,8,22.81,22.81,0,0,1,.6,22.65L655.71,538.5A23.77,23.77,0,0,1,634.77,551h-29.5l-25.06,34.13H787.88c.6-.76,1.2-1.54,1.79-2.31l-104-141.74Z"/><path class="cls-5" d="M523.56,375.4a92.57,92.57,0,0,1-2.7-22.29c0-46.93,34.69-84.84,77.14-84.84s77.14,37.91,77.14,84.84a93.42,93.42,0,0,1-2.51,21.55l-.09.34a4.24,4.24,0,0,1,.94,2,220.81,220.81,0,0,1,3.68,40.52c0,1.78,0,3.54-.06,5.3a220.81,220.81,0,0,1-3.27,33.33,4.3,4.3,0,0,1-5.34,3.41,14.11,14.11,0,0,0-3.85-.47L546,460.81a24.74,24.74,0,0,0-15.06,5.4,4.33,4.33,0,0,1-4.13.68,4.27,4.27,0,0,1-2.75-3.14,216.49,216.49,0,0,1-4.77-40.95c0-1.76-.06-3.52-.06-5.3A221.7,221.7,0,0,1,522.92,377,4.32,4.32,0,0,1,523.56,375.4Zm7.29,6.06a214.57,214.57,0,0,0-3,36q0,2.56.06,5.1a211.53,211.53,0,0,0,3.36,33.24,33.13,33.13,0,0,1,14.63-3.62l118.63-1.75q.76,0,1.53,0a213.93,213.93,0,0,0,2.45-27.9q.06-2.53.06-5.1a214.14,214.14,0,0,0-3-35.81,4.34,4.34,0,0,1-1.67-1.34,4.29,4.29,0,0,1-.69-3.78c.37-1.29.72-2.59,1-3.9a84.27,84.27,0,0,0,2.28-19.56c0-42-30.59-76.24-68.54-76.24s-68.54,34.28-68.54,76.24a84.18,84.18,0,0,0,2.49,20.4c.25,1,.53,2.05.82,3.06a4.26,4.26,0,0,1-.69,3.78A4.34,4.34,0,0,1,530.85,381.46Z"/><path class="cls-5" d="M754.42,534.82l-48-65.43a4.3,4.3,0,0,1,2.16-6.65,33.28,33.28,0,0,1,9.52-1.55l51.21-.89a21.94,21.94,0,0,1,3.72.25,22.8,22.8,0,0,1,17.4,32.08L776.47,523a23.76,23.76,0,0,1-17.92,13.57A4.29,4.29,0,0,1,754.42,534.82Zm5.25-7.38a15.19,15.19,0,0,0,9-8.06l13.93-30.33a14.22,14.22,0,0,0-10.84-20,15,15,0,0,0-2.33-.15l-51.2.88-.85,0Z"/><path class="cls-5" d="M771,368.65a260.34,260.34,0,0,1,6.25,41.72c.56,7.64.85,15.57.85,23.69,0,10.8-.52,21.25-1.49,31.16a4.29,4.29,0,0,1-4.9,3.83,15,15,0,0,0-2.33-.15l-51.2.88a25,25,0,0,0-7.07,1.16,4.3,4.3,0,0,1-4.76-1.55L692.92,451a4.16,4.16,0,0,1-.83-2.35q-.33-7.19-.33-14.62c0-8.12.3-16.05.85-23.69,1.44-19.66,4.63-37.47,9-52a4.3,4.3,0,0,1,4.11-3.05h58.36a4.3,4.3,0,0,1,4.12,3.05C769.24,361.63,770.17,365.07,771,368.65Zm-2.58,91.67c.71-8.42,1.08-17.22,1.08-26.26,0-7.91-.28-15.62-.83-23.06a251.36,251.36,0,0,0-6-40.33c-.56-2.32-1.15-4.58-1.77-6.76H709a241,241,0,0,0-7.8,47.09c-.54,7.44-.83,15.15-.83,23.06q0,6.56.26,12.94l11,14.93a33.25,33.25,0,0,1,6.48-.74Z"/><path class="cls-5" d="M621.82,417.38v.21c0,18.69-8.34,33.86-18.6,33.86s-18.61-15.17-18.61-33.86,8.34-33.86,18.61-33.86c3.76,0,7.27,2,10.2,5.54a15.12,15.12,0,0,0-7.65,13.39c0,8.24,6.16,14.93,13.75,14.93A12.53,12.53,0,0,0,621.82,417.38Z"/><path class="cls-5" d="M747.06,416.94v.65c0,16.48-5.43,29.86-12.11,29.86s-12.1-13.38-12.1-29.86,5.42-29.86,12.1-29.86c2.33,0,4.5,1.62,6.35,4.42a15.57,15.57,0,0,0-4,10.51C737.32,409.38,741.42,415.08,747.06,416.94Z"/></svg>